<svg xmlns="http://www.w3.org/2000/svg" viewBox="0 0 24 24" width="24" height="24"><path d="M12 0C5.373 0 0 5.373 0 12c0 4.989 2.578 9.378 6.637 11.774-.095-.75-.18-1.886-.13-2.716.217-1.58 1.4-4.375 2.597-6.166 1.445-2.042 3.099-3.215 5.897-3.215 2.797 0 4.451 1.174 5.897 3.215 1.2 1.791 2.383 4.586 2.6 6.166.05.83.036 1.966-.06 2.716C21.423 21.375 24 16.986 24 12 24 5.373 18.627 0 12 0zm-5.206 17.242c-.807 0-1.63-.356-2.244-.975.487-.614.764-1.387.764-2.186 0-2.662 3.266-5.068 5.445-5.068.49 0 .98.047 1.457.143.27.058.508.195.743.354.226.155.434.355.621.592.528.609.814 1.414.814 2.224 0 1.075-.47 2.024-1.308 2.792-.827.767-1.908 1.155-2.954 1.155zm9.063 0c-.806 0-1.627-.356-2.242-.975.485-.614.764-1.387.764-2.186 0-2.662 3.266-5.068 5.445-5.068.49 0 .98.047 1.458.143.27.058.508.195.743.354.226.155.435.355.621.592.528.609.814 1.414.814 2.224 0 1.075-.47 2.024-1.308 2.792-.827.767-1.908 1.155-2.955 1.155zm-4.765-7.194c-.54 0-1.072-.256-1.432-.677-.373-.442-.616-1.027-.616-1.666 0-.624.239-1.237.654-1.69.434-.464.984-.737 1.556-.737.559 0 1.115.265 1.477.688.381.447.609 1.034.609 1.646 0 .623-.232 1.202-.646 1.645-.407.438-.972.699-1.564.699zm-4.767 0c-.542 0-1.068-.254-1.43-.677-.373-.442-.609-1.027-.609-1.666 0-.623.237-1.237.654-1.69.436-.464.985-.737 1.558-.737.558 0 1.114.265 1.474.688.381.447.614 1.034.614 1.646 0 .623-.233 1.202-.646 1.645-.407.438-.974.699-1.572.699z"/></svg>
