<svg xmlns="http://www.w3.org/2000/svg" viewBox="0 0 24 24" width="24" height="24"><path d="M12 2.163c3.239 0 3.643.012 4.927.07 1.199.059 1.992.27 2.458.562.483.305.838.719 1.17 1.17.293.467.503 1.27.563 2.458.057 1.284.071 1.688.071 4.927s-.014 3.643-.071 4.927c-.059 1.199-.27 1.992-.562 2.458-.305.483-.719.838-1.17 1.17-.467.293-1.27.503-2.458.563-1.284.057-1.688.07-4.927.07s-3.643-.012-4.927-.07c-1.199-.059-1.992-.27-2.458-.563-.483-.305-.838-.719-1.17-1.17-.293-.467-.503-1.27-.562-2.458-.057-1.284-.071-1.688-.071-4.927s.014-3.643.071-4.927c.059-1.199.27-1.992.562-2.458.305-.483.719-.838 1.17-1.17.467-.293 1.27-.503 2.458-.562 1.284-.057 1.688-.07 4.927-.07zM12 0c-3.321 0-3.728.013-5.036.073-1.313.061-2.447.284-3.347.655-.977.388-1.82.919-2.566 1.665-.746.746-1.277 1.589-1.665 2.566-.37.9-.593 2.034-.655 3.347C2.013 8.273 2 8.681 2 12c0 3.321.013 3.728.073 5.036.061 1.313.284 2.447.655 3.347.388.977.919 1.82 1.665 2.566.746.746 1.589 1.277 2.566 1.665.9.37 2.034.593 3.347.655 1.308.061 1.716.073 5.036.073s3.728-.013 5.036-.073c1.313-.061 2.447-.284 3.347-.655.977-.388 1.82-.919 2.566-1.665.746-.746 1.277-1.589 1.665-2.566.37-.9.593-2.034.655-3.347.061-1.308.073-1.716.073-5.036s-.012-3.728-.073-5.036c-.061-1.313-.284-2.447-.655-3.347-.388-.977-.919-1.82-1.665-2.566-.746-.746-1.589-1.277-2.566-1.665-.9-.37-2.034-.593-3.347-.655C15.728.013 16.321 0 12 0zm0 5.837a6.163 6.163 0 1 0 0 12.326 6.163 6.163 0 0 0 0-12.326zm0 10.338a4.175 4.175 0 1 1 0-8.35 4.175 4.175 0 0 1 0 8.35zm4.181-7.863a1.481 1.481 0 1 1 0-2.963 1.481 1.481 0 0 1 0 2.963z"/></svg>
