<svg xmlns="http://www.w3.org/2000/svg" viewBox="0 0 24 24" width="24" height="24"><path d="M12 2.243a1.462 1.462 0 0 0-1.457 1.457v15.6a1.462 1.462 0 0 0 1.457 1.457 1.462 1.462 0 0 0 1.457-1.457V3.7A1.462 1.462 0 0 0 12 2.243zM5.707 8.536v8.928c0 .51.409.92.92.92h.038a.917.917 0 0 0 .82-.52l5.017-8.468c.062-.092.115-.191.155-.294.06-.149.094-.309.094-.473a.78.78 0 0 0-.014-.1.886.886 0 0 0-.067-.342.913.913 0 0 0-.1-.247.917.917 0 0 0-.168-.2.923.923 0 0 0-.217-.138.938.938 0 0 0-.272-.075.912.912 0 0 0-.332.056.914.914 0 0 0-.278.168c-.077.074-.147.155-.207.246a.936.936 0 0 0-.066.245c-.043.124-.065.252-.065.38 0 .16.032.316.092.466.045.121.12.227.215.325a.925.925 0 0 0 .34.16c.092.029.187.043.282.043h.138c.16 0 .312-.034.462-.097.065-.021.134-.043.202-.066a.952.952 0 0 0 .302-.122c.091-.065.178-.137.263-.212a.938.938 0 0 0 .256-.275.941.941 0 0 0 .166-.289.92.92 0 0 0 .082-.373c0-.158-.026-.312-.074-.462-.079-.248-.211-.472-.392-.66L6.18 8.775a.911.911 0 0 0-.316-.267.922.922 0 0 0-.399-.092c-.16 0-.319.053-.451.142-.095.069-.173.156-.226.26a.82.82 0 0 0-.104.252.773.773 0 0 0-.039.21zm11.737-.027c.048-.248.143-.473.286-.688a.939.939 0 0 1 .399-.291c.143-.063.292-.092.442-.078.14.018.278.075.41.158.042.029.089.06.131.093.064.053.127.106.189.16.026.029.048.063.072.095.057.096.115.192.164.293.018.047.034.093.048.14.029.118.05.236.067.356a.953.953 0 0 1-.095.451.927.927 0 0 1-.205.278.94.94 0 0 1-.352.216.923.923 0 0 1-.424.069c-.132-.031-.257-.095-.362-.186a.918.918 0 0 1-.174-.21.85.85 0 0 1-.111-.223c-.031-.107-.049-.22-.049-.333 0-.162.032-.315.092-.464.041-.104.098-.207.17-.302a.952.952 0 0 1 .263-.245.933.933 0 0 1 .373-.078c.141.006.277.039.404.094.13.057.245.131.35.221.055.046.113.089.171.13.074.053.148.109.222.166.096.083.192.17.284.261.01.01.021.022.033.032.014.013.03.025.046.037.081.067.161.137.236.207.088.085.174.17.263.254.062.055.128.104.196.15.074.053.147.106.224.154a.925.925 0 0 1 .23.279c.031.12.047.24.047.362a.98.98 0 0 1-.093.453.929.929 0 0 1-.275.36.935.935 0 0 1-.434.165c-.192 0-.367-.061-.516-.164a.918.918 0 0 1-.263-.226l-.005-.005c-.065-.082-.122-.168-.174-.256-.069-.102-.147-.2-.238-.29a.944.944 0 0 1-.316-.242c-.102-.085-.2-.171-.295-.261-.066-.055-.137-.108-.208-.16-.082-.069-.165-.138-.245-.207-.085-.073-.17-.144-.263-.207-.102-.066-.206-.131-.313-.193-.096-.061-.194-.122-.293-.177-.092-.051-.183-.105-.277-.144.212-.3.309-.647.309-1.022.002-.224-.024-.447-.077-.663z"/></svg>
