<svg xmlns="http://www.w3.org/2000/svg" viewBox="0 0 24 24" width="24" height="24"><path d="M12 2.25c-5.088 0-9.25 4.162-9.25 9.25 0 5.088 4.162 9.25 9.25 9.25 1.755 0 3.459-.527 4.878-1.424l1.343.794c.47.278 1.018.415 1.57.415.268 0 .537-.03.804-.088 1.222-.307 2.12-1.302 2.12-2.597v-.003c0-1.15-.732-2.124-1.76-2.447a8.865 8.865 0 0 0 1.294-2.81c.152-.653.238-1.331.238-2.021 0-.69-.086-1.368-.238-2.021a8.847 8.847 0 0 0-1.294-2.81c1.028-.323 1.76-1.297 1.76-2.447v-.003c0-1.295-.898-2.29-2.12-2.597a2.42 2.42 0 0 0-.804-.088c-.552 0-1.1.137-1.57.415l-1.343.794a8.54 8.54 0 0 0-4.878-1.424zm0-1.5c5.856 0 10.75 4.894 10.75 10.75s-4.894 10.75-10.75 10.75-10.75-4.894-10.75-10.75 4.894-10.75 10.75-10.75z"/></svg>
