<svg xmlns="http://www.w3.org/2000/svg" viewBox="0 0 24 24" width="24" height="24"><path d="M12 2a10 10 0 1 0 10 10A10.012 10.012 0 0 0 12 2zm0 18a8.006 8.006 0 0 1-7.467-5.604l.976-.447A6.078 6.078 0 0 0 12 17.91a6.078 6.078 0 0 0 5.491-3.961l.977.447A8.006 8.006 0 0 1 12 20zm0-2a5.993 5.993 0 0 1-4.762-2.581l.729-.571A4.007 4.007 0 0 0 12 15a4.007 4.007 0 0 0 3.026-1.425l.729.571A5.993 5.993 0 0 1 12 18zm0-5.634c-1.517 0-2.765-1.283-2.765-2.865s1.248-2.865 2.765-2.865 2.765 1.283 2.765 2.865-1.248 2.865-2.765 2.865zm0-4.896c-1.177 0-2.121.979-2.121 2.199s.944 2.199 2.121 2.199 2.121-.979 2.121-2.199-.944-2.199-2.121-2.199z"/></svg>
