<svg xmlns="http://www.w3.org/2000/svg" viewBox="0 0 24 24" width="24" height="24"><path d="M21.322 6.478l-16.27 6.08c-1.425.539-1.844.855-1.62 1.731.208.694 1.021.543 1.905.323l8.09-3.079 6.426 2.48c.527.203.978.124 1.291-.315.213-.222.329-.597.355-1.02.01-.1-.024-.318-.098-.588a1.236 1.236 0 0 0-.566-.652l-6.39-4.68a2.63 2.63 0 0 0-1.42-.522l-7.442.014-3.032.973c-1.507.482-1.866 1.261-1.874 1.848-.016.579.452 1.314 1.177 1.694l9.644 5.652a2.29 2.29 0 0 0 2.29.044c.066-.057.124-.115.164-.177.037-.065.062-.136.075-.211.077-.338.081-.688.043-1.043-.036-.415-.24-.779-.584-1.084l-6.425-5.473 7.914-1.53c.79-.154 1.273-.372 1.473-.69.203-.319.137-.646.085-.916-.099-.389-.325-.732-.673-1.038-.223-.234-.425-.423-.655-.571z"/></svg>
