<svg xmlns="http://www.w3.org/2000/svg" viewBox="0 0 24 24" width="24" height="24"><path d="M23 3a10.92 10.92 0 0 1-3.13.858A4.593 4.593 0 0 0 22.437 2c-.868.515-1.828.89-2.84 1.085a4.582 4.582 0 0 0-7.852 3.15c0 .357.04.705.117 1.042A13.003 13.003 0 0 1 1.67 2.887a4.572 4.572 0 0 0-.62 2.295c0 1.589.809 2.993 2.042 3.813a4.585 4.585 0 0 1-2.083-.572v.058c0 2.211 1.567 4.061 3.645 4.482a4.586 4.586 0 0 1-2.077.079c.586 1.826 2.288 3.154 4.308 3.188A9.18 9.18 0 0 1 0 18.086a13.008 13.008 0 0 0 7.021 2.058c8.424 0 13.015-6.982 13.015-13.016 0-.198-.005-.395-.014-.591A9.291 9.291 0 0 0 23 3z"/></svg>
